HIERARCHY
ROOT Hips
{
	OFFSET 0.000000 0.000000 0.000000
	CHANNELS 6 Xposition Yposition Zposition Zrotation Yrotation Xrotation 
	JOINT LHipJoint
	{
		OFFSET 0.000000 0.000000 0.000000
		CHANNELS 3 Zrotation Yrotation Xrotation
		JOINT LeftUpLeg
		{
			OFFSET 1.363060 -1.794630 0.839290
			CHANNELS 3 Zrotation Yrotation Xrotation
			JOINT LeftLeg
			{
				OFFSET 2.448110 -6.726130 0.000000
				CHANNELS 3 Zrotation Yrotation Xrotation
				JOINT LeftFoot
				{
					OFFSET 2.562200 -7.039590 0.000000
					CHANNELS 3 Zrotation Yrotation Xrotation
					JOINT LeftToeBase
					{
						OFFSET 0.157640 -0.433110 2.322550
						CHANNELS 3 Zrotation Yrotation Xrotation
						End Site
						{
							OFFSET 0.000000 0.000000 0.000000
						}
					}
				}
			}
		}
	}
	JOINT RHipJoint
	{
		OFFSET 0.000000 0.000000 0.000000
		CHANNELS 3 Zrotation Yrotation Xrotation
		JOINT RightUpLeg
		{
			OFFSET -1.305520 -1.794630 0.839290
			CHANNELS 3 Zrotation Yrotation Xrotation
			JOINT RightLeg
			{
				OFFSET -2.542530 -6.985550 0.000000
				CHANNELS 3 Zrotation Yrotation Xrotation
				JOINT RightFoot
				{
					OFFSET -2.568260 -7.056230 0.000000
					CHANNELS 3 Zrotation Yrotation Xrotation
					JOINT RightToeBase
					{
						OFFSET -0.164730 -0.452590 2.363150
						CHANNELS 3 Zrotation Yrotation Xrotation
						End Site
						{
							OFFSET 0.000000 0.000000 0.000000
						}
					}
				}
			}
		}
	}
	JOINT LowerBack
	{
		OFFSET 0.000000 0.000000 0.000000
		CHANNELS 3 Zrotation Yrotation Xrotation
		JOINT Spine
		{
			OFFSET 0.028270 2.035590 -0.193380
			CHANNELS 3 Zrotation Yrotation Xrotation
			JOINT Spine1
			{
				OFFSET 0.056720 2.048850 -0.042750
				CHANNELS 3 Zrotation Yrotation Xrotation
				JOINT Neck
				{
					OFFSET 0.000000 0.000000 0.000000
					CHANNELS 3 Zrotation Yrotation Xrotation
					JOINT Neck1
					{
						OFFSET -0.054170 1.746240 0.172020
						CHANNELS 3 Zrotation Yrotation Xrotation
						JOINT Head
						{
							OFFSET 0.104070 1.761360 -0.123970
							CHANNELS 3 Zrotation Yrotation Xrotation
							End Site
							{
								OFFSET 0.000000 0.000000 0.000000
							}
						}
					}
				}
				JOINT LeftShoulder
				{
					OFFSET 0.000000 0.000000 0.000000
					CHANNELS 3 Zrotation Yrotation Xrotation
					JOINT LeftArm
					{
						OFFSET 3.362410 1.200890 -0.311210
						CHANNELS 3 Zrotation Yrotation Xrotation
						JOINT LeftForeArm
						{
							OFFSET 4.983000 -0.000000 -0.000000
							CHANNELS 3 Zrotation Yrotation Xrotation
							JOINT LeftHand
							{
								OFFSET 3.483560 -0.000000 -0.000000
								CHANNELS 3 Zrotation Yrotation Xrotation
								JOINT LeftFingerBase
								{
									OFFSET 0.000000 0.000000 0.000000
									CHANNELS 3 Zrotation Yrotation Xrotation
									JOINT LeftHandIndex1
									{
										OFFSET 0.715260 -0.000000 -0.000000
										CHANNELS 3 Zrotation Yrotation Xrotation
										End Site
										{
											OFFSET 0.000000 0.000000 0.000000
										}
									}
								}
								JOINT LThumb
								{
									OFFSET 0.000000 0.000000 0.000000
									CHANNELS 3 Zrotation Yrotation Xrotation
									End Site
									{
										OFFSET 0.000000 0.000000 0.000000
									}
								}
							}
						}
					}
				}
				JOINT RightShoulder
				{
					OFFSET 0.000000 0.000000 0.000000
					CHANNELS 3 Zrotation Yrotation Xrotation
					JOINT RightArm
					{
						OFFSET -3.136600 1.374050 -0.404650
						CHANNELS 3 Zrotation Yrotation Xrotation
						JOINT RightForeArm
						{
							OFFSET -5.241900 -0.000000 -0.000000
							CHANNELS 3 Zrotation Yrotation Xrotation
							JOINT RightHand
							{
								OFFSET -3.444170 -0.000000 -0.000000
								CHANNELS 3 Zrotation Yrotation Xrotation
								JOINT RightFingerBase
								{
									OFFSET 0.000000 0.000000 0.000000
									CHANNELS 3 Zrotation Yrotation Xrotation
									JOINT RightHandIndex1
									{
										OFFSET -0.622530 -0.000000 -0.000000
										CHANNELS 3 Zrotation Yrotation Xrotation
										End Site
										{
											OFFSET 0.000000 0.000000 0.000000
										}
									}
								}
								JOINT RThumb
								{
									OFFSET 0.000000 0.000000 0.000000
									CHANNELS 3 Zrotation Yrotation Xrotation
									End Site
									{
										OFFSET 0.000000 0.000000 0.000000
									}
								}
							}
						}
					}
				}
			}
		}
	}
}
MOTION
Frames: 12
Frame Time: 0.008333
3.859813 17.213402 1.305830 -178.745499 -70.219116 -171.535174 -11.555736 1.422142 -2.276991 -5.509632 28.285088 -15.278173 -2.981186 -0.868278 3.129578 1.067647 8.215784 -1.795491 0.804100 0.000001 -32.408900 9.417322 -1.504900 3.552977 0.587904 3.227203 -13.294951 2.754227 1.190332 -2.429950 0.819101 5.984640 5.135984 0.952700 -0.000000 -44.802599 0.788333 -0.149190 -2.366817 -0.566112 -0.256402 -3.418778 -6.974085 0.025552 -1.553486 8.177493 -6.055887 0.189361 -4.347488 -0.397942 2.076728 0.000000 0.000000 0.000000 12.267718 6.925624 -2.209753 -86.449079 -19.934536 23.537928 -178.329764 -50.463148 179.980514 0.872438 -6.736812 -0.050705 0.082559 1.199220 -0.000000 0.000000 0.000000 0.000000 0.000000 0.000000 0.000000 2.301590 -3.386375 -3.550402 92.614678 26.169376 38.897227 -179.536241 55.808881 179.867399 -8.199648 16.336170 -1.295793 0.138681 -1.312317 -0.000000 0.000000 0.000000 0.000000 0.000000 0.000000 0.000000 
3.858625 17.214341 1.304642 -178.644360 -69.886382 -171.608153 -11.568213 1.407985 -2.322027 -5.460409 28.459024 -15.260914 -2.976365 -0.867066 3.149674 1.092904 8.408353 -1.826315 0.817300 0.000000 -32.381700 9.397768 -1.515362 3.606852 0.591683 3.483051 -13.238963 2.768136 1.204945 -2.709178 0.858719 6.161655 5.391927 0.998800 0.000001 -44.680000 0.961188 -0.086670 -2.349392 -0.561808 -0.209826 -3.408164 -7.026553 0.077605 -1.513042 8.050974 -6.116887 0.103390 -4.351768 -0.397440 2.052268 0.000000 0.000000 0.000000 12.220134 7.097918 -2.206837 -85.579506 -20.431836 22.592156 -178.236439 -50.356749 179.982198 0.834062 -6.455446 -0.046515 0.077946 1.185796 -0.000000 0.000000 0.000000 0.000000 0.000000 0.000000 0.000000 2.242748 -3.384592 -3.547260 92.799411 26.271718 39.186482 -179.549142 55.903402 179.867747 -8.198545 16.304088 -1.293295 0.139675 -1.311214 -0.000000 0.000000 0.000000 0.000000 0.000000 0.000000 0.000000 
3.857794 17.215561 1.303299 -178.565001 -69.530744 -171.673814 -11.584858 1.398175 -2.365080 -5.411381 28.668193 -15.238312 -2.974178 -0.866666 3.162880 1.114836 8.584013 -1.837498 0.831700 0.000000 -32.372100 9.375628 -1.532991 3.673489 0.590748 3.751903 -13.162923 2.782525 1.222996 -3.038108 0.905000 6.342621 5.685570 1.044601 -0.000000 -44.556100 1.163176 -0.012741 -2.349174 -0.566635 -0.156163 -3.398302 -7.141195 0.140147 -1.467755 7.927208 -6.184005 0.040103 -4.358652 -0.397305 2.033939 0.000000 0.000000 0.000000 12.135565 7.249825 -2.211089 -84.311981 -21.341347 21.520556 -178.090006 -50.373179 179.984695 0.783542 -6.032480 -0.041072 0.069036 1.166176 -0.000000 0.000000 0.000000 0.000000 0.000000 0.000000 0.000000 2.229203 -3.394996 -3.529690 92.992920 26.369587 39.498824 -179.557810 55.999143 179.868061 -8.187515 16.262431 -1.288406 0.139904 -1.309962 -0.000000 0.000000 0.000000 0.000000 0.000000 0.000000 0.000000 
3.857604 17.217015 1.301553 -178.515028 -69.163958 -171.732328 -11.606236 1.393687 -2.405367 -5.361237 28.914646 -15.203743 -2.974974 -0.867310 3.166222 1.131626 8.732498 -1.822216 0.847101 -0.000000 -32.387700 9.350999 -1.559042 3.752643 0.583784 4.029730 -13.067166 2.796399 1.242743 -3.395501 0.955721 6.521859 5.999491 1.088800 0.000000 -44.425000 1.391345 0.075050 -2.368207 -0.584939 -0.093291 -3.390070 -7.339926 0.216066 -1.423407 7.831481 -6.245196 0.018788 -4.364224 -0.397422 2.027120 0.000000 0.000000 0.000000 12.003256 7.359398 -2.219495 -82.564224 -22.781177 20.351735 -177.897642 -50.639568 179.988006 0.709761 -5.470995 -0.034077 0.056132 1.139977 -0.000000 0.000000 0.000000 0.000000 0.000000 0.000000 0.000000 2.288304 -3.404305 -3.493692 93.179235 26.448731 39.814424 -179.556547 56.086512 179.868200 -8.168778 16.213140 -1.281636 0.139022 -1.308513 -0.000000 0.000000 0.000000 0.000000 0.000000 0.000000 0.000000 
3.858446 17.218702 1.299226 -178.496106 -68.799428 -171.790217 -11.632619 1.395041 -2.442440 -5.306132 29.197805 -15.150367 -2.978728 -0.868845 3.155830 1.141709 8.844308 -1.774356 0.863800 0.000000 -32.435200 9.324106 -1.593482 3.841871 0.572448 4.309355 -12.951597 2.809042 1.262456 -3.758689 1.008526 6.692648 6.315516 1.129900 0.000000 -44.284400 1.639767 0.175444 -2.405854 -0.620212 -0.022429 -3.384188 -7.638206 0.304289 -1.386995 7.794147 -6.287922 0.056185 -4.362381 -0.397512 2.036626 0.000000 0.000000 0.000000 11.812559 7.395559 -2.220883 -80.258078 -24.846068 19.099452 -177.689500 -51.294375 179.991779 0.611086 -4.803305 -0.026017 0.040437 1.108082 -0.000000 0.000000 0.000000 0.000000 0.000000 0.000000 0.000000 2.445208 -3.394240 -3.437460 93.338334 26.497126 40.110665 -179.539413 56.156150 179.868000 -8.147351 16.158564 -1.273791 0.136787 -1.306715 -0.000000 0.000000 0.000000 0.000000 0.000000 0.000000 0.000000 
3.860583 17.220632 1.296203 -178.502756 -68.452510 -171.855023 -11.663500 1.402515 -2.475077 -5.243392 29.512839 -15.077415 -2.985461 -0.870882 3.127679 1.143826 8.910335 -1.689254 0.881700 0.000000 -32.517000 9.295237 -1.635148 3.938534 0.560823 4.585219 -12.821022 2.819912 1.280778 -4.103879 1.059665 6.843260 6.615261 1.165000 0.000000 -44.137300 1.896526 0.282387 -2.462707 -0.675137 0.050930 -3.380092 -8.042644 0.398906 -1.357994 7.851161 -6.306635 0.154491 -4.345000 -0.397039 2.063355 0.000000 0.000000 0.000000 11.541775 7.342598 -2.193917 -77.315027 -27.613977 17.766080 -177.517557 -52.493944 179.995381 0.502082 -4.085839 -0.018372 0.023660 1.072560 -0.000000 0.000000 0.000000 0.000000 0.000000 0.000000 0.000000 2.723329 -3.348953 -3.364902 93.449591 26.510715 40.367802 -179.503443 56.196050 179.867390 -8.128276 16.100054 -1.265880 0.133240 -1.304323 -0.000000 0.000000 0.000000 0.000000 0.000000 0.000000 0.000000 
3.864551 17.222600 1.292826 -178.518724 -68.136501 -171.947436 -11.698068 1.415956 -2.505573 -5.162196 29.849622 -14.968758 -2.993835 -0.872561 3.070030 1.137778 8.927528 -1.564804 0.900600 0.000001 -32.640200 9.266426 -1.679047 4.030338 0.558122 4.832043 -12.664491 2.830076 1.297143 -4.419799 1.108470 6.980010 6.887423 1.195600 0.000000 -43.990000 2.141579 0.380651 -2.524079 -0.747394 0.114139 -3.381134 -8.524650 0.483785 -1.362541 8.024070 -6.278845 0.325575 -4.303901 -0.395647 2.111138 0.000000 0.000000 0.000000 11.229332 7.106750 -2.108654 -73.690469 -30.973305 16.261155 -177.482734 -54.349537 179.997431 0.442286 -3.402803 -0.013808 0.009390 1.036501 -0.000000 0.000000 0.000000 0.000000 0.000000 0.000000 0.000000 3.116577 -3.237099 -3.278284 93.484685 26.480435 40.564074 -179.442024 56.204287 179.866178 -8.123357 16.040749 -1.259911 0.128345 -1.300801 -0.000000 0.000000 0.000000 0.000000 0.000000 0.000000 0.000000 
3.870115 17.224781 1.288984 -178.520415 -67.870836 -172.073546 -11.733490 1.433797 -2.532490 -5.064543 30.191974 -14.841026 -3.004043 -0.873347 2.979043 1.123339 8.889503 -1.399843 0.920101 -0.000000 -32.795700 9.238812 -1.721349 4.113431 0.572331 5.047405 -12.499283 2.839314 1.311217 -4.686475 1.150001 7.079727 7.118276 1.216300 -0.000000 -43.853800 2.345678 0.456682 -2.589943 -0.835034 0.156689 -3.385279 -9.050213 0.545786 -1.389513 8.341229 -6.218443 0.533477 -4.231553 -0.392578 2.170359 0.000000 0.000000 0.000000 10.872336 6.722988 -1.947618 -69.361903 -34.872569 14.529872 -177.652566 -57.034680 179.997046 0.488857 -2.813990 -0.013499 0.000183 1.002415 -0.000000 0.000000 0.000000 0.000000 0.000000 0.000000 0.000000 3.626692 -3.072365 -3.193317 93.426669 26.414635 40.694188 -179.360758 56.168039 179.864572 -8.136463 15.980219 -1.256482 0.122864 -1.295600 -0.000000 0.000000 0.000000 0.000000 0.000000 0.000000 0.000000 
3.877483 17.227098 1.285061 -178.482629 -67.674498 -172.246828 -11.766545 1.453026 -2.558426 -4.946173 30.518114 -14.695875 -3.014909 -0.872965 2.843511 1.101253 8.796476 -1.196126 0.939700 0.000000 -32.980000 9.214547 -1.753591 4.173434 0.616713 5.212624 -12.375969 2.847670 1.315867 -4.796415 1.176930 7.140852 7.245530 1.226300 0.000000 -43.741899 2.474992 0.493193 -2.642657 -0.929325 0.166633 -3.396926 -9.547873 0.566985 -1.464860 8.800320 -6.121883 0.760034 -4.125193 -0.387661 2.236513 0.000000 0.000000 0.000000 10.559109 6.162755 -1.723386 -64.421206 -39.024402 12.433284 -178.075731 -60.674913 179.993086 0.723084 -2.366716 -0.018439 -0.000575 0.972091 -0.000000 0.000000 0.000000 0.000000 0.000000 0.000000 0.000000 4.215279 -2.869033 -3.119363 93.259033 26.309990 40.754625 -179.261641 56.083201 179.862663 -8.175380 15.919570 -1.256692 0.117327 -1.288024 -0.000000 0.000000 0.000000 0.000000 0.000000 0.000000 0.000000 
3.886220 17.229620 1.281396 -178.375145 -67.567342 -172.475445 -11.794675 1.470498 -2.583347 -4.807298 30.801294 -14.541378 -3.025181 -0.872046 2.650423 1.072685 8.651683 -0.954649 0.959400 -0.000000 -33.180800 9.194559 -1.768160 4.197711 0.703806 5.312510 -12.375197 2.854589 1.300632 -4.593355 1.179177 7.159254 7.183120 1.224400 0.000001 -43.666299 2.507707 0.477236 -2.667286 -1.018767 0.135503 -3.420714 -9.949935 0.533397 -1.608491 9.377507 -6.000475 0.979856 -3.988971 -0.381091 2.303026 0.000000 0.000000 0.000000 10.380717 5.457472 -1.492735 -59.064640 -43.131856 9.879477 -178.699598 -65.397859 179.984724 1.220238 -2.067143 -0.029340 0.007385 0.945958 -0.000000 0.000000 0.000000 0.000000 0.000000 0.000000 0.000000 4.836203 -2.668062 -3.064400 92.985195 26.170199 40.762411 -179.154332 55.953294 179.860691 -8.245442 15.858200 -1.261531 0.112735 -1.277700 -0.000000 0.000000 0.000000 0.000000 0.000000 0.000000 0.000000 
3.895966 17.232403 1.278370 -178.179398 -67.560912 -172.759465 -11.816686 1.485425 -2.605081 -4.653213 31.016243 -14.390362 -3.034094 -0.870272 2.390467 1.039204 8.459076 -0.680152 0.978400 0.000000 -33.388100 9.182578 -1.765580 4.183396 0.836744 5.319302 -12.340080 2.865283 1.293127 -4.438571 1.176408 7.124242 7.134670 1.209200 0.000000 -43.638700 2.445626 0.399726 -2.656525 -1.089724 0.055894 -3.465776 -10.205791 0.433030 -1.851571 10.020207 -5.853256 1.192084 -3.834179 -0.373719 2.370275 0.000000 0.000000 0.000000 10.463783 4.605197 -1.340925 -53.614116 -46.844772 6.842802 -179.374006 -71.271502 179.971622 2.024209 -1.892486 -0.046735 0.021654 0.923300 -0.000000 0.000000 0.000000 0.000000 0.000000 0.000000 0.000000 5.429044 -2.490143 -3.026465 92.630760 25.987946 40.736841 -179.047893 55.799696 179.858836 -8.345716 15.796048 -1.270889 0.109646 -1.264902 -0.000000 0.000000 0.000000 0.000000 0.000000 0.000000 0.000000 
3.906276 17.235474 1.276379 -177.889277 -67.661544 -173.098528 -11.833598 1.499637 -2.614616 -4.491173 31.139552 -14.251253 -3.040011 -0.868025 2.054075 1.002506 8.226024 -0.376006 0.996300 0.000000 -33.589700 9.177150 -1.743981 4.128464 1.019302 5.216685 -12.283136 2.881236 1.294386 -4.323734 1.168895 7.035026 7.100060 1.180201 0.000000 -43.666600 2.320189 0.251398 -2.611806 -1.131389 -0.083775 -3.534100 -10.308126 0.255276 -2.193678 10.666016 -5.683372 1.396877 -3.674597 -0.366411 2.438491 0.000000 0.000000 0.000000 10.881523 3.636562 -1.327816 -48.363841 -49.988098 3.428193 -179.899386 -78.322311 179.953663 3.171093 -1.786300 -0.071255 0.035730 0.902759 -0.000000 0.000000 0.000000 0.000000 0.000000 0.000000 0.000000 5.946382 -2.337560 -3.005004 92.246155 25.775083 40.712810 -178.954415 55.658144 179.857275 -8.471809 15.733499 -1.284153 0.108680 -1.250559 -0.000000 0.000000 0.000000 0.000000 0.000000 0.000000 0.000000 
